<?xml version="1.0" encoding="UTF-8" standalone="no"?>
<svg
   viewBox="0 0 24 24"
   version="1.1"
   id="svg1"
   sodipodi:docname="arrow.svg"
   inkscape:version="1.3.1 (9b9bdc1480, 2023-11-25, custom)"
   xmlns:inkscape="http://www.inkscape.org/namespaces/inkscape"
   xmlns:sodipodi="http://sodipodi.sourceforge.net/DTD/sodipodi-0.dtd"
   xmlns="http://www.w3.org/2000/svg"
   xmlns:svg="http://www.w3.org/2000/svg"
   xmlns:rdf="http://www.w3.org/1999/02/22-rdf-syntax-ns#"
   xmlns:cc="http://creativecommons.org/ns#"
   xmlns:dc="http://purl.org/dc/elements/1.1/">
  <sodipodi:namedview
     id="namedview1"
     pagecolor="#505050"
     bordercolor="#eeeeee"
     borderopacity="1"
     inkscape:showpageshadow="0"
     inkscape:pageopacity="0"
     inkscape:pagecheckerboard="0"
     inkscape:deskcolor="#505050"
     inkscape:zoom="20.25"
     inkscape:cx="12.024691"
     inkscape:cy="12"
     inkscape:window-width="1366"
     inkscape:window-height="684"
     inkscape:window-x="0"
     inkscape:window-y="0"
     inkscape:window-maximized="1"
     inkscape:current-layer="svg1" />
  <defs
     id="defs1">
    <style
       id="style1">.cls-1{fill:#fff;opacity:0;}.cls-2{fill:#231f20;}</style>
  </defs>
  <title
     id="title1">arrow-circle-right</title>
  <g
     id="Layer_2"
     data-name="Layer 2"
     style="fill:#fff6c5;fill-opacity:1"
     transform="rotate(180,12,12)">
    <g
       id="arrow-circle-right"
       style="fill:#fff6c5;fill-opacity:1">
      <g
         id="arrow-circle-right-2"
         data-name="arrow-circle-right"
         style="fill:#fff6c5;fill-opacity:1">
        <rect
           class="cls-1"
           width="24"
           height="24"
           transform="rotate(-90,12,12)"
           id="rect1"
           style="fill:#fff6c5;fill-opacity:1"
           x="0"
           y="0" />
        <path
           class="cls-2"
           d="M 2,12 A 10,10 0 1 0 12,2 10,10 0 0 0 2,12 Z m 11.86,-3.69 2.86,3 a 0.49,0.49 0 0 1 0.1,0.15 0.54,0.54 0 0 1 0.1,0.16 0.94,0.94 0 0 1 0,0.76 1,1 0 0 1 -0.21,0.33 l -3,3 A 1.0040916,1.0040916 0 0 1 12.29,14.29 L 13.59,13 H 8 a 1,1 0 0 1 0,-2 h 5.66 L 12.41,9.69 a 1.0008621,1.0008621 0 0 1 1.45,-1.38 z"
           id="path1"
           style="fill:#fff6c5;fill-opacity:1" />
      </g>
    </g>
  </g>
  <metadata
     id="metadata3">
    <rdf:RDF>
      <cc:Work
         rdf:about="">
        <dc:title>arrow-circle-right</dc:title>
      </cc:Work>
    </rdf:RDF>
  </metadata>
</svg>
