<svg width="24" height="25" viewBox="0 0 24 25" fill="none" xmlns="http://www.w3.org/2000/svg">
<path d="M10.7798 19.5301C10.6392 19.6705 10.4486 19.7494 10.2498 19.7494C10.0511 19.7494 9.86045 19.6705 9.71983 19.5301L3.46983 13.2801C3.32938 13.1394 3.25049 12.9488 3.25049 12.7501C3.25049 12.5513 3.32938 12.3607 3.46983 12.2201L9.71983 5.97006C9.8115 5.87133 9.9281 5.79916 10.0574 5.76115C10.1866 5.72313 10.3237 5.72068 10.4542 5.75406C10.5848 5.78743 10.7039 5.85539 10.799 5.95078C10.8941 6.04617 10.9618 6.16545 10.9948 6.29606C11.0281 6.42644 11.0258 6.56338 10.9879 6.69252C10.9501 6.82167 10.8782 6.93825 10.7798 7.03006L5.80983 12.0001H20.2498C20.4487 12.0001 20.6395 12.0791 20.7802 12.2197C20.9208 12.3604 20.9998 12.5511 20.9998 12.7501C20.9998 12.949 20.9208 13.1397 20.7802 13.2804C20.6395 13.421 20.4487 13.5001 20.2498 13.5001H5.80983L10.7798 18.4701C10.9203 18.6107 10.9992 18.8013 10.9992 19.0001C10.9992 19.1988 10.9203 19.3894 10.7798 19.5301Z" fill="#FFF6C5"/>
</svg>
